<?xml version="1.0" encoding="UTF-8" standalone="no"?>
<!-- Created with Inkscape (http://www.inkscape.org/) -->

<svg
   version="1.1"
   id="svg2"
   width="500"
   height="500"
   viewBox="0 0 500.00001 500"
   xmlns="http://www.w3.org/2000/svg"
   xmlns:svg="http://www.w3.org/2000/svg">
  <defs
     id="defs6" />
  <g
     id="g8"
     transform="matrix(1.3333333,0,0,-1.3333333,0,448.65333)"
     style="display:none">
    <g
       id="g500"
       transform="translate(-444.04184,-15.619562)">
      <path
         d="m 718.992,100.978 c 0,0 -18.102,40.281 -20.639,61.49 -2.534,21.206 22.608,49.663 36.728,86.072 5.952,15.351 17.345,39.149 -5.936,50.696 -37.994,18.841 -64.485,-105.96 -64.485,-105.96 0,0 -1.924,2.921 -4.038,24.981 -2.115,22.06 5.989,62.842 6.018,76.737 0.068,32.792 -40.421,35.847 -49.251,4.549 -5.077,-17.995 -4.638,-84.983 4.343,-109.292 0,0 -16.092,22.074 -24.179,47.289 -8.085,25.215 -9.667,65.566 -38.699,60.643 0,0 -28.198,-9.524 -14.68,-42.28 12.857,-31.154 30.778,-77.653 37.99,-87.538 0,0 -29.078,26.935 -36.588,41.964 -7.509,15.029 -19.387,22.526 -29.714,17.91 -14.924,-6.669 -21.466,-33.418 5.024,-59.665 26.49,-26.252 34.207,-33.385 40.615,-38.451"
         style="fill:#a7a5a6;fill-opacity:1;fill-rule:nonzero;stroke:none;stroke-width:0.1"
         id="path72" />
      <path
         d="m 718.992,100.978 c 0,0 -18.102,40.281 -20.639,61.49 -2.534,21.206 22.608,49.663 36.728,86.072 5.952,15.351 17.345,39.149 -5.936,50.696 -37.994,18.841 -64.485,-105.96 -64.485,-105.96 0,0 -1.924,2.921 -4.038,24.981 -2.115,22.06 5.989,62.842 6.018,76.737 0.068,32.792 -40.421,35.847 -49.251,4.549 -5.077,-17.995 -4.638,-84.983 4.343,-109.292 0,0 -16.092,22.074 -24.179,47.289 -8.085,25.215 -9.667,65.566 -38.699,60.643 0,0 -28.198,-9.524 -14.68,-42.28 12.857,-31.154 30.778,-77.653 37.99,-87.538 0,0 -29.078,26.935 -36.588,41.964 -7.509,15.029 -19.387,22.526 -29.714,17.91 -14.924,-6.669 -21.466,-33.418 5.024,-59.665 26.49,-26.252 34.207,-33.385 40.615,-38.451"
         style="fill:none;stroke:#a7a5a6;stroke-width:20.3806;stroke-linecap:round;stroke-linejoin:round;stroke-miterlimit:10;stroke-dasharray:none;stroke-opacity:1"
         id="path74" />
      <path
         d="m 666.962,127.388 c 0,0 12.126,18.929 34.774,19.616 0,0 46.32,70.222 74.36,41.542 15.775,-16.134 0.752,-42.476 -7.134,-49.048 -9.451,-7.875 -50.391,-46.171 -50.391,-46.171 0,0 -8.307,-21.775 -21.466,-32.375 C 683.951,50.3539 683.118,26.8391 683.118,26.8391 L 599.4,21.2129 c 0,0 10.806,27.6031 8.659,34.848 -1.879,6.3371 -51.013,45.1871 -46.488,73.8091"
         style="fill:#a7a5a6;fill-opacity:1;fill-rule:nonzero;stroke:none;stroke-width:0.1"
         id="path76" />
      <path
         d="m 666.962,127.388 c 0,0 12.126,18.929 34.774,19.616 0,0 46.32,70.222 74.36,41.542 15.775,-16.134 0.752,-42.476 -7.134,-49.048 -9.451,-7.875 -50.391,-46.171 -50.391,-46.171 0,0 -8.307,-21.775 -21.466,-32.375 C 683.951,50.3539 683.118,26.8391 683.118,26.8391 L 599.4,21.2129 c 0,0 10.806,27.6031 8.659,34.848 -1.879,6.3371 -51.013,45.1871 -46.488,73.8091"
         style="fill:none;stroke:#a7a5a6;stroke-width:20.3806;stroke-linecap:round;stroke-linejoin:round;stroke-miterlimit:10;stroke-dasharray:none;stroke-opacity:1"
         id="path78" />
      <path
         d="m 716.572,103.584 c 0,0 -18.103,40.282 -20.64,61.491 -2.534,21.21 22.609,49.667 36.727,86.076 5.954,15.352 17.347,39.149 -5.935,50.695 -37.994,18.843 -64.485,-105.959 -64.485,-105.959 0,0 -1.923,2.921 -4.038,24.981 -2.115,22.059 5.99,62.843 6.018,76.737 0.068,32.792 -40.426,35.847 -49.256,4.549 -5.077,-17.995 -4.637,-84.982 4.346,-109.292 0,0 -16.094,22.074 -24.179,47.289 -8.087,25.215 -9.669,65.566 -38.701,60.644 0,0 -28.198,-9.525 -14.68,-42.281 12.857,-31.154 30.778,-77.653 37.991,-87.542 0,0 -29.079,26.939 -36.588,41.968 -7.508,15.029 -19.387,22.526 -29.714,17.911 -14.923,-6.67 -21.467,-33.418 5.023,-59.67 26.49,-26.252 34.208,-33.386 40.615,-38.451"
         style="fill:#ffffff;fill-opacity:1;fill-rule:nonzero;stroke:none;stroke-width:0.1"
         id="path80" />
      <path
         d="m 716.572,103.584 c 0,0 -18.103,40.282 -20.64,61.491 -2.534,21.21 22.609,49.667 36.727,86.076 5.954,15.352 17.347,39.149 -5.935,50.695 -37.994,18.843 -64.485,-105.959 -64.485,-105.959 0,0 -1.923,2.921 -4.038,24.981 -2.115,22.059 5.99,62.843 6.018,76.737 0.068,32.792 -40.426,35.847 -49.256,4.549 -5.077,-17.995 -4.637,-84.982 4.346,-109.292 0,0 -16.094,22.074 -24.179,47.289 -8.087,25.215 -9.669,65.566 -38.701,60.644 0,0 -28.198,-9.525 -14.68,-42.281 12.857,-31.154 30.778,-77.653 37.991,-87.542 0,0 -29.079,26.939 -36.588,41.968 -7.508,15.029 -19.387,22.526 -29.714,17.911 -14.923,-6.67 -21.467,-33.418 5.023,-59.67 26.49,-26.252 34.208,-33.386 40.615,-38.451"
         style="fill:none;stroke:#ffffff;stroke-width:20.3806;stroke-linecap:round;stroke-linejoin:round;stroke-miterlimit:10;stroke-dasharray:none;stroke-opacity:1"
         id="path82" />
      <path
         d="m 664.542,129.994 c 0,0 12.125,18.929 34.774,19.617 0,0 46.32,70.226 74.36,41.546 15.775,-16.136 0.752,-42.481 -7.135,-49.052 -9.45,-7.874 -50.391,-46.1691 -50.391,-46.1691 0,0 -8.307,-21.7777 -21.465,-32.3757 -13.154,-10.6 -13.988,-34.1141 -13.988,-34.1141 l -83.72,-5.6262 c 0,0 10.805,27.602 8.656,34.8481 -1.877,6.3359 -51.011,45.187 -46.486,73.809"
         style="fill:#ffffff;fill-opacity:1;fill-rule:nonzero;stroke:none;stroke-width:0.1"
         id="path84" />
      <path
         d="m 664.542,129.994 c 0,0 12.125,18.929 34.774,19.617 0,0 46.32,70.226 74.36,41.546 15.775,-16.136 0.752,-42.481 -7.135,-49.052 -9.45,-7.874 -50.391,-46.1691 -50.391,-46.1691 0,0 -8.307,-21.7777 -21.465,-32.3757 -13.154,-10.6 -13.988,-34.1141 -13.988,-34.1141 l -83.72,-5.6262 c 0,0 10.805,27.602 8.656,34.8481 -1.877,6.3359 -51.011,45.187 -46.486,73.809"
         style="fill:none;stroke:#ffffff;stroke-width:20.3806;stroke-linecap:round;stroke-linejoin:round;stroke-miterlimit:10;stroke-dasharray:none;stroke-opacity:1"
         id="path86" />
      <path
         d="m 716.572,103.584 c 0,0 -18.103,40.282 -20.64,61.491 -2.534,21.21 22.609,49.667 36.727,86.076 5.954,15.352 17.347,39.149 -5.935,50.695 -37.994,18.843 -64.485,-105.959 -64.485,-105.959 0,0 -1.923,2.921 -4.038,24.981 -2.115,22.059 5.99,62.843 6.018,76.737 0.068,32.792 -40.426,35.847 -49.256,4.549 -5.077,-17.995 -4.637,-84.982 4.346,-109.292 0,0 -16.094,22.074 -24.179,47.289 -8.087,25.215 -9.669,65.566 -38.701,60.644 0,0 -28.198,-9.525 -14.68,-42.281 12.857,-31.154 30.778,-77.653 37.991,-87.542 0,0 -29.079,26.939 -36.588,41.968 -7.508,15.029 -19.387,22.526 -29.714,17.911 -14.923,-6.67 -21.467,-33.418 5.023,-59.67 26.49,-26.252 34.208,-33.386 40.615,-38.451"
         style="fill:#fcd7bf;fill-opacity:1;fill-rule:nonzero;stroke:none;stroke-width:0.1"
         id="path88" />
      <path
         d="m 716.572,103.584 c 0,0 -18.103,40.282 -20.64,61.491 -2.534,21.21 22.609,49.667 36.727,86.076 5.954,15.352 17.347,39.149 -5.935,50.695 -37.994,18.843 -64.485,-105.959 -64.485,-105.959 0,0 -1.923,2.921 -4.038,24.981 -2.115,22.059 5.99,62.843 6.018,76.737 0.068,32.792 -40.426,35.847 -49.256,4.549 -5.077,-17.995 -4.637,-84.982 4.346,-109.292 0,0 -16.094,22.074 -24.179,47.289 -8.087,25.215 -9.669,65.566 -38.701,60.644 0,0 -28.198,-9.525 -14.68,-42.281 12.857,-31.154 30.778,-77.653 37.991,-87.542 0,0 -29.079,26.939 -36.588,41.968 -7.508,15.029 -19.387,22.526 -29.714,17.911 -14.923,-6.67 -21.467,-33.418 5.023,-59.67 26.49,-26.252 34.208,-33.386 40.615,-38.451"
         style="fill:none;stroke:#656263;stroke-width:7.44603;stroke-linecap:round;stroke-linejoin:round;stroke-miterlimit:10;stroke-dasharray:none;stroke-opacity:1"
         id="path90" />
      <path
         d="m 664.542,129.994 c 0,0 12.125,18.929 34.774,19.617 0,0 46.32,70.226 74.36,41.546 15.775,-16.136 0.752,-42.481 -7.135,-49.052 -9.45,-7.874 -50.391,-46.1691 -50.391,-46.1691 0,0 -8.307,-21.7777 -21.465,-32.3757 -13.154,-10.6 -13.988,-34.1141 -13.988,-34.1141 l -83.72,-5.6262 c 0,0 10.805,27.602 8.656,34.8481 -1.877,6.3359 -51.011,45.187 -46.486,73.809"
         style="fill:#fcd7bf;fill-opacity:1;fill-rule:nonzero;stroke:none;stroke-width:0.1"
         id="path92" />
      <path
         d="m 664.542,129.994 c 0,0 12.125,18.929 34.774,19.617 0,0 46.32,70.226 74.36,41.546 15.775,-16.136 0.752,-42.481 -7.135,-49.052 -9.45,-7.874 -50.391,-46.1691 -50.391,-46.1691 0,0 -8.307,-21.7777 -21.465,-32.3757 -13.154,-10.6 -13.988,-34.1141 -13.988,-34.1141 l -83.72,-5.6262 c 0,0 10.805,27.602 8.656,34.8481 -1.877,6.3359 -51.011,45.187 -46.486,73.809"
         style="fill:none;stroke:#656263;stroke-width:7.44603;stroke-linecap:round;stroke-linejoin:round;stroke-miterlimit:10;stroke-dasharray:none;stroke-opacity:1"
         id="path94" />
    </g>
  </g>
  <g
     id="layer1"
     style="display:none">
    <g
       id="g486"
       transform="matrix(1.3333333,0,0,-1.3333333,-233.84716,456.38873)">
      <path
         d="m 424.305,104.919 c 0,0 1.084,9.903 -5.621,35.386 -6.701,25.485 5.413,78.311 26.354,121.696 20.941,43.384 -17.333,52.617 -17.333,52.617 -59.084,18.707 -55.421,-142.392 -55.421,-142.392 0,0 -2.847,3.244 -9.179,29.838 -6.334,26.595 -3.361,77.804 -5.686,94.786 -5.487,40.079 -55.486,36.93 -60.957,-2.812 -3.146,-22.85 8.774,-104.626 23.879,-132.8 20.616,-38.457 -13.155,-4.535 5.84,-34.084 18.997,-29.5501 98.124,-22.235 98.124,-22.235"
         style="fill:#a7a5a6;fill-opacity:1;fill-rule:nonzero;stroke:none;stroke-width:0.1"
         id="path12" />
      <path
         d="m 424.305,104.919 c 0,0 1.084,9.903 -5.621,35.386 -6.701,25.485 5.413,78.311 26.354,121.696 20.941,43.384 -17.333,52.617 -17.333,52.617 -59.084,18.707 -55.421,-142.392 -55.421,-142.392 0,0 -2.847,3.244 -9.179,29.838 -6.334,26.595 -3.361,77.804 -5.686,94.786 -5.487,40.079 -55.486,36.93 -60.957,-2.812 -3.146,-22.85 8.774,-104.626 23.879,-132.8 20.616,-38.457 -13.155,-4.535 5.84,-34.084 18.997,-29.5501 98.124,-22.235 98.124,-22.235 z"
         style="fill:none;stroke:#a7a5a6;stroke-width:18.4083;stroke-linecap:round;stroke-linejoin:round;stroke-miterlimit:10;stroke-dasharray:none;stroke-opacity:1"
         id="path14" />
      <path
         d="m 439.37,133.88 c -30.95,-4.42 -61.014,-5.303 -56.59,24.76 4.422,30.062 68.085,33.6 87.54,-1.767 19.452,-35.37 -34.486,-68.0878 -34.486,-68.0878 0,0 -0.886,-17.6801 -13.266,-29.177 -12.378,-11.498 -7.07,-38.9094 -7.07,-38.9094 L 332.383,9.20391 c 0,0 8.84,28.29409 6.187,35.36989 -2.65,7.0731 -69.853,52.1703 -46.864,82.2342 22.991,30.065 8.245,30.462 40.077,42.838"
         style="fill:#bdbcbc;fill-opacity:1;fill-rule:nonzero;stroke:none;stroke-width:0.1"
         id="path16" />
      <path
         d="m 439.37,133.88 c -30.95,-4.42 -61.014,-5.303 -56.59,24.76 4.422,30.062 68.085,33.6 87.54,-1.767 19.452,-35.37 -34.486,-68.0878 -34.486,-68.0878 0,0 -0.886,-17.6801 -13.266,-29.177 -12.378,-11.498 -7.07,-38.9094 -7.07,-38.9094 L 332.383,9.20391 c 0,0 8.84,28.29409 6.187,35.36989 -2.65,7.0731 -69.853,52.1703 -46.864,82.2342 22.991,30.065 8.245,30.462 40.077,42.838"
         style="fill:none;stroke:#bdbcbc;stroke-width:18.4083;stroke-linecap:round;stroke-linejoin:round;stroke-miterlimit:10;stroke-dasharray:none;stroke-opacity:1"
         id="path18" />
      <path
         d="m 293.218,176.188 c 0,0 13.995,25.601 42.579,-6.065 20.465,-22.666 46.024,-43.371 31.628,-57.089 -14.4,-13.7192 -89.529,26.928 -74.207,63.154"
         style="fill:#bdbcbc;fill-opacity:1;fill-rule:nonzero;stroke:none;stroke-width:0.1"
         id="path20" />
      <path
         d="m 293.218,176.188 c 0,0 13.995,25.601 42.579,-6.065 20.465,-22.666 46.024,-43.371 31.628,-57.089 -14.4,-13.7192 -89.529,26.928 -74.207,63.154 z"
         style="fill:none;stroke:#bdbcbc;stroke-width:18.4083;stroke-linecap:round;stroke-linejoin:round;stroke-miterlimit:10;stroke-dasharray:none;stroke-opacity:1"
         id="path22" />
      <path
         d="m 279.294,138.585 c 8.325,11.522 21.126,6.867 33.645,-4.793 17.655,-16.445 36.368,-34.2701 24.99,-45.1088 -11.381,-10.8402 -81.725,17.9478 -58.635,49.9018"
         style="fill:#bdbcbc;fill-opacity:1;fill-rule:nonzero;stroke:none;stroke-width:0.1"
         id="path24" />
      <path
         d="m 279.294,138.585 c 8.325,11.522 21.126,6.867 33.645,-4.793 17.655,-16.445 36.368,-34.2701 24.99,-45.1088 -11.381,-10.8402 -81.725,17.9478 -58.635,49.9018 z"
         style="fill:none;stroke:#bdbcbc;stroke-width:18.4083;stroke-linecap:round;stroke-linejoin:round;stroke-miterlimit:10;stroke-dasharray:none;stroke-opacity:1"
         id="path26" />
      <path
         d="m 396.928,110.008 c 0,0 4.42,18.569 22.105,21.223"
         style="fill:#bdbcbc;fill-opacity:1;fill-rule:nonzero;stroke:none;stroke-width:0.1"
         id="path28" />
      <path
         d="m 396.928,110.008 c 0,0 4.42,18.569 22.105,21.223"
         style="fill:none;stroke:#bdbcbc;stroke-width:18.4083;stroke-linecap:round;stroke-linejoin:round;stroke-miterlimit:10;stroke-dasharray:none;stroke-opacity:1"
         id="path30" />
      <path
         d="m 422.07,106.781 c 0,0 1.084,9.903 -5.62,35.386 -6.701,25.488 5.413,78.314 26.354,121.699 20.942,43.384 -17.333,52.618 -17.333,52.618 -59.088,18.706 -55.425,-142.392 -55.425,-142.392 0,0 -2.848,3.243 -9.179,29.837 -6.334,26.595 -3.361,77.804 -5.686,94.787 -5.488,40.078 -55.487,36.93 -60.957,-2.812 -3.146,-22.852 8.774,-104.627 23.879,-132.803 20.617,-38.458 -13.156,-4.536 5.839,-34.086 18.997,-29.5478 98.128,-22.234 98.128,-22.234"
         style="fill:#ffffff;fill-opacity:1;fill-rule:nonzero;stroke:none;stroke-width:0.1"
         id="path32" />
      <path
         d="m 422.07,106.781 c 0,0 1.084,9.903 -5.62,35.386 -6.701,25.488 5.413,78.314 26.354,121.699 20.942,43.384 -17.333,52.618 -17.333,52.618 -59.088,18.706 -55.425,-142.392 -55.425,-142.392 0,0 -2.848,3.243 -9.179,29.837 -6.334,26.595 -3.361,77.804 -5.686,94.787 -5.488,40.078 -55.487,36.93 -60.957,-2.812 -3.146,-22.852 8.774,-104.627 23.879,-132.803 20.617,-38.458 -13.156,-4.536 5.839,-34.086 18.997,-29.5478 98.128,-22.234 98.128,-22.234 z"
         style="fill:none;stroke:#ffffff;stroke-width:18.4083;stroke-linecap:round;stroke-linejoin:round;stroke-miterlimit:10;stroke-dasharray:none;stroke-opacity:1"
         id="path34" />
      <path
         d="m 437.136,135.743 c -30.951,-4.422 -61.013,-5.304 -56.591,24.758 4.422,30.066 68.086,33.604 87.54,-1.766 C 487.538,123.364 433.6,90.648 433.6,90.648 c 0,0 -0.885,-17.682 -13.265,-29.1789 -12.378,-11.4972 -7.071,-38.907 -7.071,-38.907 L 330.145,11.0672 c 0,0 8.838,28.2937 6.187,35.3687 -2.65,7.0723 -69.853,52.17 -46.864,82.2341 22.991,30.065 8.245,30.461 40.077,42.841"
         style="fill:#ffffff;fill-opacity:1;fill-rule:nonzero;stroke:none;stroke-width:0.1"
         id="path36" />
      <path
         d="m 437.136,135.743 c -30.951,-4.422 -61.013,-5.304 -56.591,24.758 4.422,30.066 68.086,33.604 87.54,-1.766 C 487.538,123.364 433.6,90.648 433.6,90.648 c 0,0 -0.885,-17.682 -13.265,-29.1789 -12.378,-11.4972 -7.071,-38.907 -7.071,-38.907 L 330.145,11.0672 c 0,0 8.838,28.2937 6.187,35.3687 -2.65,7.0723 -69.853,52.17 -46.864,82.2341 22.991,30.065 8.245,30.461 40.077,42.841"
         style="fill:none;stroke:#ffffff;stroke-width:18.4083;stroke-linecap:round;stroke-linejoin:round;stroke-miterlimit:10;stroke-dasharray:none;stroke-opacity:1"
         id="path38" />
      <path
         d="m 290.98,178.052 c 0,0 13.995,25.603 42.579,-6.064 20.464,-22.668 46.028,-43.374 31.628,-57.092 -14.4,-13.72 -89.529,26.927 -74.207,63.156"
         style="fill:#ffffff;fill-opacity:1;fill-rule:nonzero;stroke:none;stroke-width:0.1"
         id="path40" />
      <path
         d="m 290.98,178.052 c 0,0 13.995,25.603 42.579,-6.064 20.464,-22.668 46.028,-43.374 31.628,-57.092 -14.4,-13.72 -89.529,26.927 -74.207,63.156 z"
         style="fill:none;stroke:#ffffff;stroke-width:18.4083;stroke-linecap:round;stroke-linejoin:round;stroke-miterlimit:10;stroke-dasharray:none;stroke-opacity:1"
         id="path42" />
      <path
         d="m 277.055,140.446 c 8.326,11.523 21.128,6.869 33.646,-4.791 17.654,-16.447 36.367,-34.272 24.989,-45.1101 -11.38,-10.841 -81.724,17.9481 -58.635,49.9011"
         style="fill:#ffffff;fill-opacity:1;fill-rule:nonzero;stroke:none;stroke-width:0.1"
         id="path44" />
      <path
         d="m 277.055,140.446 c 8.326,11.523 21.128,6.869 33.646,-4.791 17.654,-16.447 36.367,-34.272 24.989,-45.1101 -11.38,-10.841 -81.724,17.9481 -58.635,49.9011 z"
         style="fill:none;stroke:#ffffff;stroke-width:18.4083;stroke-linecap:round;stroke-linejoin:round;stroke-miterlimit:10;stroke-dasharray:none;stroke-opacity:1"
         id="path46" />
      <path
         d="m 394.692,111.87 c 0,0 4.421,18.569 22.107,21.222"
         style="fill:#ffffff;fill-opacity:1;fill-rule:nonzero;stroke:none;stroke-width:0.1"
         id="path48" />
      <path
         d="m 394.692,111.87 c 0,0 4.421,18.569 22.107,21.222"
         style="fill:none;stroke:#ffffff;stroke-width:18.4083;stroke-linecap:round;stroke-linejoin:round;stroke-miterlimit:10;stroke-dasharray:none;stroke-opacity:1"
         id="path50" />
      <path
         d="m 422.07,106.781 c 0,0 1.084,9.903 -5.62,35.386 -6.701,25.488 5.413,78.314 26.354,121.699 20.942,43.384 -17.333,52.618 -17.333,52.618 -59.088,18.706 -55.425,-142.392 -55.425,-142.392 0,0 -2.848,3.243 -9.179,29.837 -6.334,26.595 -3.361,77.804 -5.686,94.787 -5.488,40.078 -55.487,36.93 -60.957,-2.812 -3.146,-22.852 8.774,-104.627 23.879,-132.803 20.617,-38.458 -13.156,-4.536 5.839,-34.086 18.997,-29.5478 98.128,-22.234 98.128,-22.234"
         style="fill:#fcd7bf;fill-opacity:1;fill-rule:nonzero;stroke:none;stroke-width:0.1"
         id="path52" />
      <path
         d="m 422.07,106.781 c 0,0 1.084,9.903 -5.62,35.386 -6.701,25.488 5.413,78.314 26.354,121.699 20.942,43.384 -17.333,52.618 -17.333,52.618 -59.088,18.706 -55.425,-142.392 -55.425,-142.392 0,0 -2.848,3.243 -9.179,29.837 -6.334,26.595 -3.361,77.804 -5.686,94.787 -5.488,40.078 -55.487,36.93 -60.957,-2.812 -3.146,-22.852 8.774,-104.627 23.879,-132.803 20.617,-38.458 -13.156,-4.536 5.839,-34.086 18.997,-29.5478 98.128,-22.234 98.128,-22.234 z"
         style="fill:none;stroke:#656263;stroke-width:7.44603;stroke-linecap:round;stroke-linejoin:round;stroke-miterlimit:10;stroke-dasharray:none;stroke-opacity:1"
         id="path54" />
      <path
         d="m 437.136,135.743 c -30.951,-4.422 -61.013,-5.304 -56.591,24.758 4.422,30.066 68.086,33.604 87.54,-1.766 C 487.538,123.364 433.6,90.648 433.6,90.648 c 0,0 -0.885,-17.682 -13.265,-29.1789 -12.378,-11.4972 -7.071,-38.907 -7.071,-38.907 L 330.145,11.0672 c 0,0 8.838,28.2937 6.187,35.3687 -2.65,7.0723 -69.853,52.17 -46.864,82.2341 22.991,30.065 8.245,30.461 40.077,42.841"
         style="fill:#fcd7bf;fill-opacity:1;fill-rule:nonzero;stroke:none;stroke-width:0.1"
         id="path56" />
      <path
         d="m 437.136,135.743 c -30.951,-4.422 -61.013,-5.304 -56.591,24.758 4.422,30.066 68.086,33.604 87.54,-1.766 C 487.538,123.364 433.6,90.648 433.6,90.648 c 0,0 -0.885,-17.682 -13.265,-29.1789 -12.378,-11.4972 -7.071,-38.907 -7.071,-38.907 L 330.145,11.0672 c 0,0 8.838,28.2937 6.187,35.3687 -2.65,7.0723 -69.853,52.17 -46.864,82.2341 22.991,30.065 8.245,30.461 40.077,42.841"
         style="fill:none;stroke:#656263;stroke-width:7.44603;stroke-linecap:round;stroke-linejoin:round;stroke-miterlimit:10;stroke-dasharray:none;stroke-opacity:1"
         id="path58" />
      <path
         d="m 290.98,178.052 c 0,0 13.995,25.603 42.579,-6.064 20.464,-22.668 46.028,-43.374 31.628,-57.092 -14.4,-13.72 -89.529,26.927 -74.207,63.156"
         style="fill:#fcd7bf;fill-opacity:1;fill-rule:nonzero;stroke:none;stroke-width:0.1"
         id="path60" />
      <path
         d="m 290.98,178.052 c 0,0 13.995,25.603 42.579,-6.064 20.464,-22.668 46.028,-43.374 31.628,-57.092 -14.4,-13.72 -89.529,26.927 -74.207,63.156 z"
         style="fill:none;stroke:#656263;stroke-width:7.44603;stroke-linecap:round;stroke-linejoin:round;stroke-miterlimit:10;stroke-dasharray:none;stroke-opacity:1"
         id="path62" />
      <path
         d="m 277.055,140.446 c 8.326,11.523 21.128,6.869 33.646,-4.791 17.654,-16.447 36.367,-34.272 24.989,-45.1101 -11.38,-10.841 -81.724,17.9481 -58.635,49.9011"
         style="fill:#fcd7bf;fill-opacity:1;fill-rule:nonzero;stroke:none;stroke-width:0.1"
         id="path64" />
      <path
         d="m 277.055,140.446 c 8.326,11.523 21.128,6.869 33.646,-4.791 17.654,-16.447 36.367,-34.272 24.989,-45.1101 -11.38,-10.841 -81.724,17.9481 -58.635,49.9011 z"
         style="fill:none;stroke:#656263;stroke-width:7.44603;stroke-linecap:round;stroke-linejoin:round;stroke-miterlimit:10;stroke-dasharray:none;stroke-opacity:1"
         id="path66" />
      <path
         d="m 394.692,111.87 c 0,0 4.421,18.569 22.107,21.222"
         style="fill:#fcd7bf;fill-opacity:1;fill-rule:nonzero;stroke:none;stroke-width:0.1"
         id="path68" />
      <path
         d="m 394.692,111.87 c 0,0 4.421,18.569 22.107,21.222"
         style="fill:none;stroke:#656263;stroke-width:7.44603;stroke-linecap:round;stroke-linejoin:round;stroke-miterlimit:10;stroke-dasharray:none;stroke-opacity:1"
         id="path70" />
    </g>
  </g>
  <g
     id="layer2"
     style="display:inline">
    <g
       id="g454"
       transform="matrix(1.3333333,0,0,-1.3333333,102.34532,503.99121)">
      <path
         d="m 132.259,275.691 c 0,0 31.12,10.556 33.691,-30.509 2.018,-32.204 14.635,-65.202 -6.094,-68.694 -20.724,-3.486 -62.4451,76.548 -27.597,99.203"
         style="fill:#a7a5a6;fill-opacity:1;fill-rule:nonzero;stroke:none;stroke-width:0.1"
         id="path96" />
      <path
         d="m 132.259,275.691 c 0,0 31.12,10.556 33.691,-30.509 2.018,-32.204 14.635,-65.202 -6.094,-68.694 -20.724,-3.486 -62.4451,76.548 -27.597,99.203 z"
         style="fill:none;stroke:#a7a5a6;stroke-width:20.3806;stroke-linecap:round;stroke-linejoin:round;stroke-miterlimit:10;stroke-dasharray:none;stroke-opacity:1"
         id="path98" />
      <path
         d="m 187.404,170.986 c -30.95,-4.42 -61.013,-5.303 -56.591,24.76 4.423,30.059 68.085,33.597 87.54,-1.767 19.453,-35.37 -34.485,-68.087 -34.485,-68.087 0,0 -0.886,-17.682 -13.265,-29.1791 -12.378,-11.4981 -7.071,-38.9078 -7.071,-38.9078 L 80.418,46.3102 c 0,0 8.8394,28.2937 6.1871,35.3699 -2.6496,7.0719 -69.8531,52.1699 -46.8633,82.2329 22.9906,30.066 30.948,39.786 62.7802,52.166"
         style="fill:#a7a5a6;fill-opacity:1;fill-rule:nonzero;stroke:none;stroke-width:0.1"
         id="path100" />
      <path
         d="m 187.404,170.986 c -30.95,-4.42 -61.013,-5.303 -56.591,24.76 4.423,30.059 68.085,33.597 87.54,-1.767 19.453,-35.37 -34.485,-68.087 -34.485,-68.087 0,0 -0.886,-17.682 -13.265,-29.1791 -12.378,-11.4981 -7.071,-38.9078 -7.071,-38.9078 L 80.418,46.3102 c 0,0 8.8394,28.2937 6.1871,35.3699 -2.6496,7.0719 -69.8531,52.1699 -46.8633,82.2329 22.9906,30.066 30.948,39.786 62.7802,52.166"
         style="fill:none;stroke:#a7a5a6;stroke-width:20.3806;stroke-linecap:round;stroke-linejoin:round;stroke-miterlimit:10;stroke-dasharray:none;stroke-opacity:1"
         id="path102" />
      <path
         d="m 83.6094,261.472 c 0,0 30.0646,13.264 36.2526,-27.413 4.851,-31.901 20.333,-63.655 0,-68.965 -20.3362,-5.302 -68.9694,70.733 -36.2526,96.378"
         style="fill:#a7a5a6;fill-opacity:1;fill-rule:nonzero;stroke:none;stroke-width:0.1"
         id="path104" />
      <path
         d="m 83.6094,261.472 c 0,0 30.0646,13.264 36.2526,-27.413 4.851,-31.901 20.333,-63.655 0,-68.965 -20.3362,-5.302 -68.9694,70.733 -36.2526,96.378 z"
         style="fill:none;stroke:#a7a5a6;stroke-width:20.3806;stroke-linecap:round;stroke-linejoin:round;stroke-miterlimit:10;stroke-dasharray:none;stroke-opacity:1"
         id="path106" />
      <path
         d="m 38.9359,236.091 c 0,0 20.8532,20.407 38.9586,-18.219 12.9629,-27.647 31.3765,-54.908 13.6012,-63.83 -17.7762,-8.924 -77.7828,51.864 -52.5598,82.049"
         style="fill:#a7a5a6;fill-opacity:1;fill-rule:nonzero;stroke:none;stroke-width:0.1"
         id="path108" />
      <path
         d="m 38.9359,236.091 c 0,0 20.8532,20.407 38.9586,-18.219 12.9629,-27.647 31.3765,-54.908 13.6012,-63.83 -17.7762,-8.924 -77.7828,51.864 -52.5598,82.049 z"
         style="fill:none;stroke:#a7a5a6;stroke-width:20.3806;stroke-linecap:round;stroke-linejoin:round;stroke-miterlimit:10;stroke-dasharray:none;stroke-opacity:1"
         id="path110" />
      <path
         d="m 18.1813,197.635 c 0,0 21.9421,8.05 30.7851,-14.397 8.8379,-22.451 24.7914,-43.388 10.7465,-50.437 -14.0469,-7.049 -61.46251,40.985 -41.5316,64.834"
         style="fill:#a7a5a6;fill-opacity:1;fill-rule:nonzero;stroke:none;stroke-width:0.1"
         id="path112" />
      <path
         d="m 18.1813,197.635 c 0,0 21.9421,8.05 30.7851,-14.397 8.8379,-22.451 24.7914,-43.388 10.7465,-50.437 -14.0469,-7.049 -61.46251,40.985 -41.5316,64.834 z"
         style="fill:none;stroke:#a7a5a6;stroke-width:20.3806;stroke-linecap:round;stroke-linejoin:round;stroke-miterlimit:10;stroke-dasharray:none;stroke-opacity:1"
         id="path114" />
      <path
         d="m 144.961,147.113 c 0,0 4.42,18.57 22.105,21.223"
         style="fill:#a7a5a6;fill-opacity:1;fill-rule:nonzero;stroke:none;stroke-width:0.1"
         id="path116" />
      <path
         d="m 144.961,147.113 c 0,0 4.42,18.57 22.105,21.223"
         style="fill:none;stroke:#a7a5a6;stroke-width:20.3806;stroke-linecap:round;stroke-linejoin:round;stroke-miterlimit:10;stroke-dasharray:none;stroke-opacity:1"
         id="path118" />
      <path
         d="m 129.094,278.674 c 0,0 31.119,10.557 33.69,-30.508 2.019,-32.204 14.636,-65.206 -6.093,-68.699 -20.724,-3.486 -62.4504,76.553 -27.597,99.207"
         style="fill:#ffffff;fill-opacity:1;fill-rule:nonzero;stroke:none;stroke-width:0.1"
         id="path120" />
      <path
         d="m 129.094,278.674 c 0,0 31.119,10.557 33.69,-30.508 2.019,-32.204 14.636,-65.206 -6.093,-68.699 -20.724,-3.486 -62.4504,76.553 -27.597,99.207 z"
         style="fill:none;stroke:#ffffff;stroke-width:20.3806;stroke-linecap:round;stroke-linejoin:round;stroke-miterlimit:10;stroke-dasharray:none;stroke-opacity:1"
         id="path122" />
      <path
         d="m 184.238,173.966 c -30.95,-4.421 -61.012,-5.305 -56.59,24.759 4.422,30.064 68.085,33.602 87.54,-1.767 19.453,-35.371 -34.486,-68.087 -34.486,-68.087 0,0 -0.885,-17.682 -13.265,-29.178 C 155.06,88.1941 160.366,60.784 160.366,60.784 L 77.2473,49.2879 c 0,0 8.839,28.2941 6.1875,35.3711 -2.6504,7.073 -69.8535,52.169 -46.8633,82.234 22.9906,30.065 30.948,39.79 62.7797,52.171"
         style="fill:#ffffff;fill-opacity:1;fill-rule:nonzero;stroke:none;stroke-width:0.1"
         id="path124" />
      <path
         d="m 184.238,173.966 c -30.95,-4.421 -61.012,-5.305 -56.59,24.759 4.422,30.064 68.085,33.602 87.54,-1.767 19.453,-35.371 -34.486,-68.087 -34.486,-68.087 0,0 -0.885,-17.682 -13.265,-29.178 C 155.06,88.1941 160.366,60.784 160.366,60.784 L 77.2473,49.2879 c 0,0 8.839,28.2941 6.1875,35.3711 -2.6504,7.073 -69.8535,52.169 -46.8633,82.234 22.9906,30.065 30.948,39.79 62.7797,52.171"
         style="fill:none;stroke:#ffffff;stroke-width:20.3806;stroke-linecap:round;stroke-linejoin:round;stroke-miterlimit:10;stroke-dasharray:none;stroke-opacity:1"
         id="path126" />
      <path
         d="m 80.4391,264.456 c 0,0 30.0649,13.264 36.2519,-27.413 4.857,-31.9 20.339,-63.659 0,-68.97 -20.3355,-5.302 -68.9691,70.738 -36.2519,96.383"
         style="fill:#ffffff;fill-opacity:1;fill-rule:nonzero;stroke:none;stroke-width:0.1"
         id="path128" />
      <path
         d="m 80.4391,264.456 c 0,0 30.0649,13.264 36.2519,-27.413 4.857,-31.9 20.339,-63.659 0,-68.97 -20.3355,-5.302 -68.9691,70.738 -36.2519,96.383 z"
         style="fill:none;stroke:#ffffff;stroke-width:20.3806;stroke-linecap:round;stroke-linejoin:round;stroke-miterlimit:10;stroke-dasharray:none;stroke-opacity:1"
         id="path130" />
      <path
         d="m 35.7645,239.075 c 0,0 20.8543,20.407 38.9585,-18.219 12.9641,-27.652 31.377,-54.912 13.6012,-63.834 -17.775,-8.925 -77.782,51.868 -52.5597,82.053"
         style="fill:#ffffff;fill-opacity:1;fill-rule:nonzero;stroke:none;stroke-width:0.1"
         id="path132" />
      <path
         d="m 35.7645,239.075 c 0,0 20.8543,20.407 38.9585,-18.219 12.9641,-27.652 31.377,-54.912 13.6012,-63.834 -17.775,-8.925 -77.782,51.868 -52.5597,82.053 z"
         style="fill:none;stroke:#ffffff;stroke-width:20.3806;stroke-linecap:round;stroke-linejoin:round;stroke-miterlimit:10;stroke-dasharray:none;stroke-opacity:1"
         id="path134" />
      <path
         d="m 15.0105,200.613 c 0,0 21.9422,8.056 30.7848,-14.396 8.8387,-22.451 24.7922,-43.388 10.7469,-50.437 -14.0473,-7.048 -61.46212,40.985 -41.5317,64.833"
         style="fill:#ffffff;fill-opacity:1;fill-rule:nonzero;stroke:none;stroke-width:0.1"
         id="path136" />
      <path
         d="m 15.0105,200.613 c 0,0 21.9422,8.056 30.7848,-14.396 8.8387,-22.451 24.7922,-43.388 10.7469,-50.437 -14.0473,-7.048 -61.46212,40.985 -41.5317,64.833 z"
         style="fill:none;stroke:#ffffff;stroke-width:20.3806;stroke-linecap:round;stroke-linejoin:round;stroke-miterlimit:10;stroke-dasharray:none;stroke-opacity:1"
         id="path138" />
      <path
         d="m 141.796,150.093 c 0,0 4.42,18.568 22.105,21.221"
         style="fill:#ffffff;fill-opacity:1;fill-rule:nonzero;stroke:none;stroke-width:0.1"
         id="path140" />
      <path
         d="m 141.796,150.093 c 0,0 4.42,18.568 22.105,21.221"
         style="fill:none;stroke:#ffffff;stroke-width:20.3806;stroke-linecap:round;stroke-linejoin:round;stroke-miterlimit:10;stroke-dasharray:none;stroke-opacity:1"
         id="path142" />
      <path
         d="m 129.094,278.674 c 0,0 31.119,10.557 33.69,-30.508 2.019,-32.204 14.636,-65.206 -6.093,-68.699 -20.724,-3.486 -62.4504,76.553 -27.597,99.207"
         style="fill:#fcd7bf;fill-opacity:1;fill-rule:nonzero;stroke:none;stroke-width:0.1"
         id="path144" />
      <path
         d="m 129.094,278.674 c 0,0 31.119,10.557 33.69,-30.508 2.019,-32.204 14.636,-65.206 -6.093,-68.699 -20.724,-3.486 -62.4504,76.553 -27.597,99.207 z"
         style="fill:none;stroke:#656263;stroke-width:7.44603;stroke-linecap:round;stroke-linejoin:round;stroke-miterlimit:10;stroke-dasharray:none;stroke-opacity:1"
         id="path146" />
      <path
         d="m 184.238,173.966 c -30.95,-4.421 -61.012,-5.305 -56.59,24.759 4.422,30.064 68.085,33.602 87.54,-1.767 19.453,-35.371 -34.486,-68.087 -34.486,-68.087 0,0 -0.885,-17.682 -13.265,-29.178 C 155.06,88.1941 160.366,60.784 160.366,60.784 L 77.2473,49.2879 c 0,0 8.839,28.2941 6.1875,35.3711 -2.6504,7.073 -69.8535,52.169 -46.8633,82.234 22.9906,30.065 30.948,39.79 62.7797,52.171"
         style="fill:#fcd7bf;fill-opacity:1;fill-rule:nonzero;stroke:none;stroke-width:0.1"
         id="path148" />
      <path
         d="m 184.238,173.966 c -30.95,-4.421 -61.012,-5.305 -56.59,24.759 4.422,30.064 68.085,33.602 87.54,-1.767 19.453,-35.371 -34.486,-68.087 -34.486,-68.087 0,0 -0.885,-17.682 -13.265,-29.178 C 155.06,88.1941 160.366,60.784 160.366,60.784 L 77.2473,49.2879 c 0,0 8.839,28.2941 6.1875,35.3711 -2.6504,7.073 -69.8535,52.169 -46.8633,82.234 22.9906,30.065 30.948,39.79 62.7797,52.171"
         style="fill:none;stroke:#656263;stroke-width:7.44603;stroke-linecap:round;stroke-linejoin:round;stroke-miterlimit:10;stroke-dasharray:none;stroke-opacity:1"
         id="path150" />
      <path
         d="m 80.4391,264.456 c 0,0 30.0649,13.264 36.2519,-27.413 4.857,-31.9 20.339,-63.659 0,-68.97 -20.3355,-5.302 -68.9691,70.738 -36.2519,96.383"
         style="fill:#fcd7bf;fill-opacity:1;fill-rule:nonzero;stroke:none;stroke-width:0.1"
         id="path152" />
      <path
         d="m 80.4391,264.456 c 0,0 30.0649,13.264 36.2519,-27.413 4.857,-31.9 20.339,-63.659 0,-68.97 -20.3355,-5.302 -68.9691,70.738 -36.2519,96.383 z"
         style="fill:none;stroke:#656263;stroke-width:7.44603;stroke-linecap:round;stroke-linejoin:round;stroke-miterlimit:10;stroke-dasharray:none;stroke-opacity:1"
         id="path154" />
      <path
         d="m 35.7645,239.075 c 0,0 20.8543,20.407 38.9585,-18.219 12.9641,-27.652 31.377,-54.912 13.6012,-63.834 -17.775,-8.925 -77.782,51.868 -52.5597,82.053"
         style="fill:#fcd7bf;fill-opacity:1;fill-rule:nonzero;stroke:none;stroke-width:0.1"
         id="path156" />
      <path
         d="m 35.7645,239.075 c 0,0 20.8543,20.407 38.9585,-18.219 12.9641,-27.652 31.377,-54.912 13.6012,-63.834 -17.775,-8.925 -77.782,51.868 -52.5597,82.053 z"
         style="fill:none;stroke:#656263;stroke-width:7.44603;stroke-linecap:round;stroke-linejoin:round;stroke-miterlimit:10;stroke-dasharray:none;stroke-opacity:1"
         id="path158" />
      <path
         d="m 15.0105,200.613 c 0,0 21.9422,8.056 30.7848,-14.396 8.8387,-22.451 24.7922,-43.388 10.7469,-50.437 -14.0473,-7.048 -61.46212,40.985 -41.5317,64.833"
         style="fill:#fcd7bf;fill-opacity:1;fill-rule:nonzero;stroke:none;stroke-width:0.1"
         id="path160" />
      <path
         d="m 15.0105,200.613 c 0,0 21.9422,8.056 30.7848,-14.396 8.8387,-22.451 24.7922,-43.388 10.7469,-50.437 -14.0473,-7.048 -61.46212,40.985 -41.5317,64.833 z"
         style="fill:none;stroke:#656263;stroke-width:7.44603;stroke-linecap:round;stroke-linejoin:round;stroke-miterlimit:10;stroke-dasharray:none;stroke-opacity:1"
         id="path162" />
      <path
         d="m 141.796,150.093 c 0,0 4.42,18.568 22.105,21.221"
         style="fill:#fcd7bf;fill-opacity:1;fill-rule:nonzero;stroke:none;stroke-width:0.1"
         id="path164" />
      <path
         d="m 141.796,150.093 c 0,0 4.42,18.568 22.105,21.221"
         style="fill:none;stroke:#656263;stroke-width:7.44603;stroke-linecap:round;stroke-linejoin:round;stroke-miterlimit:10;stroke-dasharray:none;stroke-opacity:1"
         id="path166" />
    </g>
  </g>
</svg>
